<svg id="visual" viewBox="0 0 900 600" width="900" height="600" xmlns="http://www.w3.org/2000/svg" xmlns:xlink="http://www.w3.org/1999/xlink" version="1.1"><path d="M0 127L300 193L600 205L900 151L900 0L600 0L300 0L0 0Z" fill="#038373"></path><path d="M0 217L300 259L600 271L900 283L900 149L600 203L300 191L0 125Z" fill="#00957c"></path><path d="M0 301L300 385L600 343L900 361L900 281L600 269L300 257L0 215Z" fill="#00a784"></path><path d="M0 403L300 421L600 397L900 427L900 359L600 341L300 383L0 299Z" fill="#00b98a"></path><path d="M0 601L300 601L600 601L900 601L900 425L600 395L300 419L0 401Z" fill="#00cc8e"></path></svg>