<svg xmlns="http://www.w3.org/2000/svg" version="1.1" xmlns:xlink="http://www.w3.org/1999/xlink" xmlns:svgjs="http://svgjs.dev/svgjs" width="2500" height="2500" preserveAspectRatio="none" viewBox="0 0 2500 2500"><g mask="url(&quot;#SvgjsMask7158&quot;)" fill="none"><rect width="2500" height="2500" x="0" y="0" fill="url(&quot;#SvgjsLinearGradient7159&quot;)"></rect><path d="M2500 0L1679.94 0L2500 1229.19z" fill="rgba(255, 255, 255, .1)"></path><path d="M1679.94 0L2500 1229.19L2500 1286.93L1388.33 0z" fill="rgba(255, 255, 255, .075)"></path><path d="M1388.33 0L2500 1286.93L2500 1944.43L866.6399999999999 0z" fill="rgba(255, 255, 255, .05)"></path><path d="M866.6399999999999 0L2500 1944.43L2500 2140.51L364.0499999999999 0z" fill="rgba(255, 255, 255, .025)"></path><path d="M0 2500L1136.8 2500L0 1867.05z" fill="rgba(0, 0, 0, .1)"></path><path d="M0 1867.05L1136.8 2500L1524.36 2500L0 1642.01z" fill="rgba(0, 0, 0, .075)"></path><path d="M0 1642.01L1524.36 2500L1948.87 2500L0 1337.53z" fill="rgba(0, 0, 0, .05)"></path><path d="M0 1337.53L1948.87 2500L2087.5299999999997 2500L0 1172.23z" fill="rgba(0, 0, 0, .025)"></path></g><defs><mask id="SvgjsMask7158"><rect width="2500" height="2500" fill="#ffffff"></rect></mask><linearGradient x1="0%" y1="0%" x2="100%" y2="100%" gradientUnits="userSpaceOnUse" id="SvgjsLinearGradient7159"><stop stop-color="rgba(60, 70, 95, 1)" offset="0.04"></stop><stop stop-color="rgba(0, 35, 102, 1)" offset="1"></stop></linearGradient></defs></svg>