<svg xmlns="http://www.w3.org/2000/svg" version="1.1" xmlns:xlink="http://www.w3.org/1999/xlink" xmlns:svgjs="http://svgjs.dev/svgjs" width="1500" height="1500" preserveAspectRatio="none" viewBox="0 0 1500 1500"><g mask="url(&quot;#SvgjsMask1147&quot;)" fill="none"><rect width="1500" height="1500" x="0" y="0" fill="rgba(8, 40, 81, 1)"></rect><path d="M0,695.347C127.804,690.107,204.387,554.549,313.709,488.141C426.855,419.41,587.282,413.087,653.435,298.414C720.04,182.958,665.56,38.942,649.156,-93.335C632.414,-228.333,663.648,-398.354,556.615,-482.31C446.087,-569.007,279.834,-454.704,143.798,-489.732C15.209,-522.843,-65.953,-678.349,-198.728,-676.806C-337.171,-675.197,-464.731,-585.889,-555.798,-481.602C-647.034,-377.121,-702.647,-239.586,-701.645,-100.881C-700.703,29.538,-617.832,139.706,-550.505,251.407C-490.284,351.319,-421.499,441.332,-330.69,514.563C-230.877,595.054,-128.116,700.6,0,695.347" fill="#072245"></path><path d="M1500 2134.925C1618.089 2127.48 1722.291 2064.543 1818.966 1996.321 1912.242 1930.499 1984.125 1845.2440000000001 2046.237 1749.458 2117.687 1639.271 2236.142 1526.373 2206.691 1398.393 2176.871 1268.808 1992.953 1248.776 1907.565 1146.843 1819.886 1042.175 1825.212 865.782 1705.509 800.1 1583.938 733.393 1430.96 772.672 1298.112 812.432 1165.748 852.047 1018.488 904.167 952.395 1025.498 887.643 1144.367 977.253 1288.298 965.438 1423.142 954.575 1547.126 849.767 1661.297 886.262 1780.285 923.359 1901.237 1044.555 1974.943 1154.095 2038.239 1259.898 2099.376 1378.046 2142.614 1500 2134.925" fill="#092e5d"></path></g><defs><mask id="SvgjsMask1147"><rect width="1500" height="1500" fill="#ffffff"></rect></mask></defs></svg>