<svg id="visual" viewBox="0 0 900 600" width="900" height="600" xmlns="http://www.w3.org/2000/svg" xmlns:xlink="http://www.w3.org/1999/xlink" version="1.1"><path d="M0 55L300 25L600 31L900 55L900 0L600 0L300 0L0 0Z" fill="#ffffff"></path><path d="M0 133L300 133L600 157L900 115L900 53L600 29L300 23L0 53Z" fill="#f8f8f8"></path><path d="M0 241L300 199L600 265L900 229L900 113L600 155L300 131L0 131Z" fill="#f1f1f1"></path><path d="M0 271L300 241L600 301L900 259L900 227L600 263L300 197L0 239Z" fill="#eaeaea"></path><path d="M0 295L300 265L600 331L900 307L900 257L600 299L300 239L0 269Z" fill="#e3e3e3"></path><path d="M0 349L300 331L600 379L900 373L900 305L600 329L300 263L0 293Z" fill="#dddddd"></path><path d="M0 391L300 355L600 415L900 397L900 371L600 377L300 329L0 347Z" fill="#d6d6d6"></path><path d="M0 499L300 523L600 541L900 505L900 395L600 413L300 353L0 389Z" fill="#cfcfcf"></path><path d="M0 535L300 547L600 565L900 529L900 503L600 539L300 521L0 497Z" fill="#c9c9c9"></path><path d="M0 601L300 601L600 601L900 601L900 527L600 563L300 545L0 533Z" fill="#c2c2c2"></path></svg>